<?xml version="1.0" encoding="UTF-8" standalone="no"?>
<svg
   xmlns:dc="http://purl.org/dc/elements/1.1/"
   xmlns:cc="http://creativecommons.org/ns#"
   xmlns:rdf="http://www.w3.org/1999/02/22-rdf-syntax-ns#"
   xmlns:svg="http://www.w3.org/2000/svg"
   xmlns="http://www.w3.org/2000/svg"
   xmlns:sodipodi="http://sodipodi.sourceforge.net/DTD/sodipodi-0.dtd"
   xmlns:inkscape="http://www.inkscape.org/namespaces/inkscape"
   version="1.1"
   id="Layer_1"
   x="0px"
   y="0px"
   viewBox="0 0 672.414 703.15898"
   xml:space="preserve"
   sodipodi:docname="corelDraw.svg"
   width="672.414"
   height="703.159"
   inkscape:version="1.0.1 (0767f8302a, 2020-10-17)"><metadata
   id="metadata73"><rdf:RDF><cc:Work
       rdf:about=""><dc:format>image/svg+xml</dc:format><dc:type
         rdf:resource="http://purl.org/dc/dcmitype/StillImage" /><dc:title></dc:title></cc:Work></rdf:RDF></metadata><defs
   id="defs71">
	
	
	
	
	
	
	
	
	
	
	
	
	
	
	
	
	
	
	
	
	
	
	
	
	
	
	
	
	
	
	
</defs><sodipodi:namedview
   pagecolor="#ffffff"
   bordercolor="#666666"
   borderopacity="1"
   objecttolerance="10"
   gridtolerance="10"
   guidetolerance="10"
   inkscape:pageopacity="0"
   inkscape:pageshadow="2"
   inkscape:window-width="1440"
   inkscape:window-height="827"
   id="namedview69"
   showgrid="false"
   inkscape:zoom="0.23294509"
   inkscape:cx="1250"
   inkscape:cy="1141.9"
   inkscape:window-x="1360"
   inkscape:window-y="0"
   inkscape:window-maximized="1"
   inkscape:current-layer="Layer_1" />
<style
   type="text/css"
   id="style2">
	.st0{fill:#979797;}
	.st1{fill:#61A706;}
	.st2{fill-rule:evenodd;clip-rule:evenodd;fill:#61A706;}
	.st3{fill-rule:evenodd;clip-rule:evenodd;fill:#979797;}
</style>
<g
   id="g142"
   transform="matrix(0.34623037,0,0,0.34623024,-0.06924607,-2.2851196)"><g
     id="g115"><path
       class="st0"
       d="m 184.2,1923.4 32.5,10.4 c -6.8,33.7 -19,59.4 -36.7,77.1 -17.6,17.7 -39.2,26.6 -64.7,26.6 -26.4,0 -47.8,-6.8 -64.4,-20.5 -16.6,-13.6 -29.1,-33.3 -37.7,-59.1 -8.6,-25.9 -13,-53.6 -13,-83.2 0,-32.3 4.9,-60.5 14.6,-84.6 9.8,-24.1 23.6,-42.4 41.6,-54.9 18,-12.5 37.8,-18.7 59.4,-18.7 24.5,0 45.2,7.9 61.8,23.7 16.7,15.8 28.4,38 34.9,66.6 l -31.9,9.5 c -5.7,-22.5 -13.9,-39 -24.7,-49.3 -10.8,-10.3 -24.4,-15.5 -40.8,-15.5 -18.8,0 -34.5,5.7 -47.2,17.1 -12.6,11.4 -21.5,26.8 -26.6,46 -5.1,19.3 -7.7,39.2 -7.7,59.6 0,26.4 3,49.4 9.1,69.1 6.1,19.7 15.5,34.4 28.3,44.2 12.8,9.8 26.6,14.6 41.5,14.6 18.2,0 33.5,-6.7 46,-19.9 12.7,-13 21.2,-32.6 25.7,-58.8 z"
       id="path4" /><path
       class="st0"
       d="m 241.8,1919.8 c 0,-41.6 9.1,-72.3 27.5,-92.4 15.2,-16.6 33.9,-24.9 55.9,-24.9 24.4,0 44.4,10.1 59.9,30.4 15.5,20.2 23.2,48.1 23.2,83.8 0,28.9 -3.4,51.6 -10.3,68.2 -6.8,16.5 -16.8,29.4 -30,38.6 -13.1,9.2 -27.4,13.7 -42.9,13.7 -24.9,0 -45,-10 -60.3,-30.2 -15.4,-20.3 -23,-49.3 -23,-87.2 z m 30.8,0.1 c 0,28.8 5,50.3 14.9,64.5 10,14.3 22.5,21.5 37.6,21.5 15,0 27.4,-7.2 37.4,-21.5 9.9,-14.4 14.9,-36.3 14.9,-65.7 0,-27.8 -5,-48.8 -15,-63 -10,-14.3 -22.4,-21.5 -37.3,-21.5 -15.1,0 -27.6,7.1 -37.6,21.3 -10,14.2 -14.9,35.7 -14.9,64.4 z"
       id="path6" /><path
       class="st0"
       d="m 443.2,2032.3 v -225.1 h 27.1 v 34.5 c 6.9,-16 13.3,-26.5 19.2,-31.6 5.9,-5.1 12.3,-7.7 19.4,-7.7 10.2,0 20.5,4 31,12.1 l -10.7,35.2 c -7.3,-5.2 -14.6,-7.8 -21.9,-7.8 -6.6,0 -12.4,2.5 -17.6,7.5 -5.2,5 -8.9,11.9 -11.1,20.8 -3.4,13.5 -5,28.3 -5,44.4 v 117.6 h -30.4 z"
       id="path8" /><path
       class="st0"
       d="m 678.9,1959.5 31.2,5.2 c -4.9,22.9 -13.9,40.8 -27.2,53.4 -13.2,12.6 -30.1,19 -50.8,19 -25.9,0 -46.5,-10.1 -61.7,-30.4 -15.2,-20.2 -22.8,-48.6 -22.8,-85.1 0,-37.7 7.7,-67.1 23,-87.9 15.4,-20.9 35.3,-31.3 59.8,-31.3 23.7,0 43,10.2 58.1,30.6 15,20.5 22.5,49.2 22.5,86.3 0,2.2 -0.1,5.6 -0.2,10.1 H 578.5 c 1.1,24.6 6.6,43.6 16.6,56.7 9.9,13.1 22.3,19.7 37.1,19.7 11,0 20.4,-3.7 28.2,-11.1 7.7,-7.2 13.9,-19 18.5,-35.2 z m -98.7,-61.2 h 99 c -1.3,-18.9 -5.1,-33.1 -11.4,-42.6 -9.5,-14.7 -22,-22 -37.2,-22 -13.8,0 -25.4,5.9 -34.8,17.6 -9.3,11.7 -14.5,27.4 -15.6,47 z"
       id="path10" /><polygon
       class="st0"
       points="747.4,2032.3 747.4,1721.9 777.6,1721.9 777.6,2032.3 "
       id="polygon12" /><path
       class="st0"
       d="m 921.8,1721.9 h 90.3 c 20.4,0 35.9,2 46.6,5.9 14.3,5.3 26.7,14.9 36.9,28.6 10.3,13.7 18,30.4 23.4,50.3 5.3,19.8 8,44.3 8,73.4 0,25.6 -2.5,47.6 -7.5,66.1 -6.1,22.6 -14.8,40.9 -26.2,54.9 -8.6,10.6 -20.2,18.9 -34.7,24.8 -10.9,4.4 -25.5,6.6 -43.7,6.6 h -93 v -310.6 z m 49.7,52.4 v 205.5 h 36.8 c 13.8,0 23.7,-1 29.8,-3 8,-2.5 14.7,-6.9 19.9,-12.9 5.3,-6.1 9.6,-16 12.9,-29.9 3.4,-13.9 5,-32.9 5,-56.9 0,-24 -1.7,-42.3 -5,-55.2 -3.3,-12.9 -8,-22.8 -14,-30.1 -6,-7.2 -13.6,-12.1 -22.8,-14.6 -6.9,-1.9 -20.4,-3 -40.5,-3 h -22.1 z"
       id="path14" /><path
       class="st0"
       d="m 1169.2,2032.3 v -310.5 h 104.3 c 26.2,0 45.3,2.8 57.1,8.4 11.9,5.6 21.4,15.5 28.5,29.7 7.1,14.3 10.7,30.6 10.7,48.9 0,23.3 -5.4,42.6 -16.2,57.7 -10.8,15.2 -26.9,24.7 -48.4,28.7 10.7,7.9 19.5,16.5 26.4,26 7,9.5 16.3,26.3 28.1,50.4 l 29.9,60.6 h -59.2 l -35.5,-67.8 c -12.7,-24.1 -21.5,-39.2 -26.2,-45.5 -4.7,-6.2 -9.7,-10.6 -14.9,-12.9 -5.3,-2.3 -13.6,-3.5 -25.1,-3.5 h -10.1 v 129.7 h -49.4 z m 49.6,-179.1 h 36.7 c 23.7,0 38.5,-1.3 44.5,-3.8 5.9,-2.5 10.6,-6.9 13.9,-13.2 3.4,-6.2 5,-14 5,-23.3 0,-10.5 -2.2,-18.9 -6.6,-25.4 -4.4,-6.4 -10.6,-10.5 -18.6,-12.1 -4.1,-0.7 -16.1,-1.1 -36.1,-1.1 h -38.7 v 78.9 z"
       id="path16" /><path
       class="st0"
       d="M 1637.5,2032.3 H 1584 l -21.2,-70.7 h -98.4 l -20.4,70.7 h -52.5 l 95.2,-310.5 h 52.5 z m -90.8,-123.1 -34.1,-114.9 -33.1,114.9 z"
       id="path18" /><polygon
       class="st0"
       points="1942.3,1721.9 1883.2,2032.3 1830.2,2032.3 1781.8,1800.2 1733.1,2032.3 1678.7,2032.3 1621,1721.9 1672.1,1721.9 1708.5,1935.1 1753.3,1721.9 1812.3,1721.9 1855.1,1938.7 1892.5,1721.9 "
       id="polygon20" /></g><g
     id="g123"
     transform="translate(-253.85)"><polygon
       class="st2"
       points="1143.2,1500.7 1301.2,1500.7 1331.9,1366.9 1110.3,1369.1 "
       id="polygon54" /><path
       class="st3"
       d="m 1192.7,1276 6,18.6 3.8,8.3 38.1,0.2 4.5,-2.2 5.5,-13 c 23.5,-60.5 85.2,-318.7 98,-384.6 34.8,-178.8 60.9,-361 48.2,-543.6 C 1392,290.7 1379,213.6 1353.2,149.1 1333.5,99.6 1303.9,42.9 1251.8,20.9 1195.2,-3 1140.6,55 1116.2,102 c -129.5,249.5 -46.8,679.8 13.7,934.9 l 20.4,87.5 c 13.4,50.7 28.6,95.7 42.4,151.6 z"
       id="path56" /><path
       class="st3"
       d="M 1176.5,1288.6 1154,1270.1 C 885.2,1017.7 516.6,169.1 1097.6,12.6 c 23.7,-6.4 18.8,-4.9 41.7,-6 -456.5,196.7 -148.5,963.6 37.2,1282 z"
       id="path58" /><path
       class="st3"
       d="m 1273.7,1288.6 22.5,-18.5 c 268.8,-252.4 637.4,-1101 56.4,-1257.5 -23.7,-6.4 -18.8,-4.9 -41.7,-6 456.5,196.7 148.6,963.6 -37.2,1282 z"
       id="path60" /><path
       class="st3"
       d="M 910.1,74 C 795.8,127.2 708,242.7 689.1,368 l -4.4,53.2 0.5,42.8 6,47.2 3.3,22.5 c 45,247.7 250.8,572.4 431.9,744.5 C 876,944.1 498.1,415.6 910.1,74 Z"
       id="path62" /><path
       class="st3"
       d="m 1540.1,74 c 114.3,53.2 202.1,168.7 221,294 l 4.4,53.2 -0.6,42.8 -6,47.2 -3.3,22.5 c -45,247.7 -250.8,572.4 -431.9,744.5 C 1574.2,944.1 1952.1,415.6 1540.1,74 Z"
       id="path64" /></g></g>
</svg>
