<?xml version="1.0" encoding="UTF-8" standalone="no"?>
<!-- Generator: Adobe Illustrator 15.0.0, SVG Export Plug-In . SVG Version: 6.00 Build 0)  -->

<svg
   xmlns:dc="http://purl.org/dc/elements/1.1/"
   xmlns:cc="http://creativecommons.org/ns#"
   xmlns:rdf="http://www.w3.org/1999/02/22-rdf-syntax-ns#"
   xmlns:svg="http://www.w3.org/2000/svg"
   xmlns="http://www.w3.org/2000/svg"
   xmlns:xlink="http://www.w3.org/1999/xlink"
   xmlns:sodipodi="http://sodipodi.sourceforge.net/DTD/sodipodi-0.dtd"
   xmlns:inkscape="http://www.inkscape.org/namespaces/inkscape"
   version="1.1"
   id="Layer_1"
   x="0px"
   y="0px"
   width="488.58185"
   height="487.46259"
   viewBox="0 0 488.58187 487.46258"
   enable-background="new 0 0 72 72"
   xml:space="preserve"
   inkscape:version="0.47 r22583"
   sodipodi:docname="logo.inkscape.svg"
   inkscape:export-filename="/home/fran/Imágenes/VECTORES/inkscape.125.png"
   inkscape:export-xdpi="89"
   inkscape:export-ydpi="89"><metadata
   id="metadata17"><rdf:RDF><cc:Work
       rdf:about=""><dc:format>image/svg+xml</dc:format><dc:type
         rdf:resource="http://purl.org/dc/dcmitype/StillImage" /><dc:title /></cc:Work></rdf:RDF></metadata><defs
   id="defs15"><inkscape:path-effect
     effect="spiro"
     id="path-effect4418"
     is_visible="true" /><linearGradient
     inkscape:collect="always"
     id="linearGradient4395"><stop
       style="stop-color:#ffffff;stop-opacity:1;"
       offset="0"
       id="stop4397" /><stop
       style="stop-color:#ffffff;stop-opacity:0;"
       offset="1"
       id="stop4399" /></linearGradient><linearGradient
     inkscape:collect="always"
     id="linearGradient4385"><stop
       style="stop-color:#ffffff;stop-opacity:1;"
       offset="0"
       id="stop4387" /><stop
       style="stop-color:#ffffff;stop-opacity:0;"
       offset="1"
       id="stop4389" /></linearGradient><linearGradient
     inkscape:collect="always"
     id="linearGradient4375"><stop
       style="stop-color:#ffffff;stop-opacity:1;"
       offset="0"
       id="stop4377" /><stop
       style="stop-color:#ffffff;stop-opacity:0;"
       offset="1"
       id="stop4379" /></linearGradient><linearGradient
     inkscape:collect="always"
     id="linearGradient4344"><stop
       style="stop-color:#ffffff;stop-opacity:1;"
       offset="0"
       id="stop4346" /><stop
       style="stop-color:#ffffff;stop-opacity:0;"
       offset="1"
       id="stop4348" /></linearGradient><inkscape:path-effect
     effect="spiro"
     id="path-effect4341"
     is_visible="true" /><linearGradient
     inkscape:collect="always"
     id="linearGradient4323"><stop
       style="stop-color:#ffffff;stop-opacity:1;"
       offset="0"
       id="stop4325" /><stop
       style="stop-color:#ffffff;stop-opacity:0;"
       offset="1"
       id="stop4327" /></linearGradient><inkscape:path-effect
     effect="spiro"
     id="path-effect4320"
     is_visible="true" /><linearGradient
     inkscape:collect="always"
     id="linearGradient4310"><stop
       style="stop-color:#333333;stop-opacity:1;"
       offset="0"
       id="stop4312" /><stop
       style="stop-color:#333333;stop-opacity:0;"
       offset="1"
       id="stop4314" /></linearGradient><inkscape:path-effect
     effect="spiro"
     id="path-effect4284"
     is_visible="true" /><inkscape:path-effect
     effect="spiro"
     id="path-effect4279"
     is_visible="true" /><inkscape:perspective
     sodipodi:type="inkscape:persp3d"
     inkscape:vp_x="0 : 36 : 1"
     inkscape:vp_y="0 : 1000 : 0"
     inkscape:vp_z="72 : 36 : 1"
     inkscape:persp3d-origin="36 : 24 : 1"
     id="perspective19" /><linearGradient
     inkscape:collect="always"
     xlink:href="#linearGradient4310"
     id="linearGradient4316"
     x1="54.147602"
     y1="81.060555"
     x2="53.284691"
     y2="24.108496"
     gradientUnits="userSpaceOnUse" /><linearGradient
     inkscape:collect="always"
     xlink:href="#linearGradient4323"
     id="linearGradient4329"
     x1="14.18644"
     y1="31.271187"
     x2="36.610168"
     y2="37.601696"
     gradientUnits="userSpaceOnUse"
     gradientTransform="translate(11.280721,11.592418)" /><filter
     inkscape:collect="always"
     id="filter4335"
     color-interpolation-filters="sRGB"><feGaussianBlur
       inkscape:collect="always"
       stdDeviation="0.43879189"
       id="feGaussianBlur4337" /></filter><linearGradient
     inkscape:collect="always"
     xlink:href="#linearGradient4344"
     id="linearGradient4350"
     x1="106.89407"
     y1="35.466103"
     x2="83.593224"
     y2="40.690678"
     gradientUnits="userSpaceOnUse"
     gradientTransform="translate(11.280721,11.592418)" /><filter
     inkscape:collect="always"
     id="filter4356"
     color-interpolation-filters="sRGB"><feGaussianBlur
       inkscape:collect="always"
       stdDeviation="0.1860877"
       id="feGaussianBlur4358" /></filter><linearGradient
     inkscape:collect="always"
     xlink:href="#linearGradient4375"
     id="linearGradient4381"
     x1="26.542372"
     y1="67.61441"
     x2="27.703051"
     y2="74.25"
     gradientUnits="userSpaceOnUse"
     gradientTransform="matrix(5.1023878,0,0,4.56055,-16.176885,83.715362)" /><linearGradient
     inkscape:collect="always"
     xlink:href="#linearGradient4385"
     id="linearGradient4391"
     x1="88.83094"
     y1="61.702171"
     x2="89.912544"
     y2="67.231697"
     gradientUnits="userSpaceOnUse"
     gradientTransform="matrix(4.7969779,0,0,4.8206944,10.948935,65.399929)" /><linearGradient
     inkscape:collect="always"
     xlink:href="#linearGradient4395"
     id="linearGradient4401"
     x1="83.120911"
     y1="67.957626"
     x2="85.667229"
     y2="73.906776"
     gradientUnits="userSpaceOnUse"
     gradientTransform="matrix(5.1023878,0,0,5.1023878,-16.176885,47.291413)" /><filter
     inkscape:collect="always"
     id="filter4515"
     x="-0.16375832"
     width="1.3275167"
     y="-0.27046311"
     height="1.5409262"
     color-interpolation-filters="sRGB"><feGaussianBlur
       inkscape:collect="always"
       stdDeviation="2.7439796"
       id="feGaussianBlur4517" /></filter><filter
     inkscape:collect="always"
     id="filter4585"
     x="-0.12057692"
     width="1.2411538"
     y="-0.35490564"
     height="1.7098113"
     color-interpolation-filters="sRGB"><feGaussianBlur
       inkscape:collect="always"
       stdDeviation="0.84538215"
       id="feGaussianBlur4587" /></filter></defs><sodipodi:namedview
   pagecolor="#ffffff"
   bordercolor="#666666"
   borderopacity="1"
   objecttolerance="10"
   gridtolerance="10"
   guidetolerance="10"
   inkscape:pageopacity="0"
   inkscape:pageshadow="2"
   inkscape:window-width="1920"
   inkscape:window-height="1005"
   id="namedview13"
   showgrid="false"
   inkscape:zoom="1.6388889"
   inkscape:cx="21.943369"
   inkscape:cy="317.01022"
   inkscape:window-x="0"
   inkscape:window-y="24"
   inkscape:window-maximized="1"
   inkscape:current-layer="Layer_1"
   inkscape:snap-global="false" />

<path
   d="m 245.77121,13.938794 c -21.18805,-0.78995 -35.23837,11.95873 -35.23837,11.95873 C 106.55066,128.18213 12.815315,223.13674 12.815315,223.13674 -1.6143749,238.84305 0.05934513,258.85345 0.05934513,258.85345 5.5799651,270.73674 78.486677,287.61447 93.33737,293.13511 c 14.85074,5.52065 33.99051,11.51379 -9.726428,29.33873 -43.716927,17.82495 -8.929177,28.06313 -8.929177,28.06313 l 92.161885,34.28169 c 23.34555,9.76465 2.07284,26.30918 2.07284,26.30918 -39.04507,34.80107 17.85835,35.23835 17.85835,35.23835 41.17053,-0.42777 30.61434,29.33871 30.61434,29.33871 17.82494,18.25264 49.59935,13.57603 83.55161,-2.55119 33.95226,-16.12732 1.75394,-24.2363 1.75394,-24.2363 -28.85942,-11.4623 36.83287,-33.96278 36.83287,-33.96278 28.85942,-10.18568 47.99435,-34.28168 47.99435,-34.28168 -3.39525,-5.09282 -20.44253,-17.72482 -33.96277,-26.30919 -9.7206,-6.17187 -9.26692,-8.08329 -7.17524,-19.13395 1.97287,-10.42297 37.31121,-13.55321 37.31121,-13.55321 28.01063,-4.24404 73.82518,-24.23636 73.82518,-24.23636 55.58662,-19.52932 19.61228,-71.75231 19.61228,-71.75231 L 278.4584,25.897524 c -11.93635,-8.35651 -23.05625,-11.59966 -32.68719,-11.95873 z m -4.94295,24.87416 c 1.85719,0 4.361,0.1079 6.69691,0.95669 3.23958,1.17718 46.42049,32.901866 78.1303,56.285744 l 7.33468,23.598542 -20.569,-9.72642 -5.10238,38.58681 -30.13598,-12.27763 -43.37032,29.65763 -18.17723,-58.99636 -23.27966,51.34278 -61.54755,5.58074 0.3189,-27.58479 c 0,0 17.45165,-35.34244 55.64791,-62.50426 l 50.86443,-34.760036 c 0,0 1.3318,-0.15946 3.18899,-0.15946 l 0,2e-5 z M 159.98731,309.39896 c 0,0 50.12824,16.85012 84.5083,17.69893 l 1.75396,11.95872 c 0,0 -59.88437,-10.2249 -78.13033,-19.13395 0,0 -5.58551,-5.43085 -8.13193,-10.5237 z"
   id="path5"
   sodipodi:nodetypes="ccccsscccccscccssccccccsccccccccccccccccccc" />
<path
   d="m 414.89641,388.83792 c 0,0 -2.87265,-10.20478 14.66935,-13.39377 l 14.35299,-2.87263 c 0,0 24.23635,0.63778 21.68516,12.75597 -2.55121,12.11814 -14.03157,10.20475 -18.49617,10.20475 -4.46457,0 -19.45539,-0.95414 -32.21133,-6.69432 z"
   id="path7" />
<path
   d="m 411.63169,405.98278 c 0,0 11.48041,1.27561 16.90422,10.84259 5.42384,9.56697 -10.20478,12.11816 -10.20478,12.11816 0,0 -8.93429,0.6378 -13.07743,-9.56698 0,0 -2.87265,-9.24551 6.37799,-13.39377 z"
   id="path9" />
<path
   d="m 144.72924,412.64184 c 0,0 2.23485,1.59707 -0.6378,4.4646 -2.87264,2.86755 -14.03156,11.16402 -18.49615,13.07743 0,0 -8.29138,4.46457 -15.94496,-0.32146 -7.65359,-4.78604 -7.65359,-13.39377 10.20477,-24.23633 l 8.61283,-0.32146 c -0.005,0.005 9.24553,3.19409 16.26131,7.33722 z"
   id="path11" />
<path
   style="fill:#ffffff;stroke:none"
   d="m 159.3888,308.99372 c 28.43541,9.2452 56.8708,15.51961 85.30623,18.16197 l 0.55036,11.00725 c -25.86706,-3.30217 -52.19274,-9.4479 -77.32597,-17.88678 -3.33587,-3.26849 -5.90506,-7.30365 -8.53062,-11.28244"
   id="path4277"
   sodipodi:nodetypes="ccccc" /><path
   style="fill:#ffffff;stroke:none"
   d="M 231.45125,29.402054 C 193.79709,59.496848 127.43083,130.09765 127.43083,130.09765 l 3.33911,33.32515 60.81507,-6.05399 23.39041,-51.45891 18.16196,59.71435 43.47867,-29.71958 30.26996,11.8328 4.67808,-38.52539 46.76937,30.26184 c -0.5916,-5.04499 -3.75908,-17.48411 -7.2687,-22.5291 L 258.0876,30.350444 c -4.79768,-5.039 -21.96209,-6.58561 -26.63635,-0.94839 z"
   id="path4282"
   sodipodi:nodetypes="ccccccccccccc" /><path
   sodipodi:nodetypes="ccccc"
   id="path4519"
   d="m 45.689255,62.882584 c 5.57296,1.811934 11.145921,3.041638 16.718881,3.559504 L 62.516,68.599363 C 57.446404,67.95218 52.286921,66.747702 47.361143,65.093791 46.707356,64.453213 46.20383,63.662374 45.689255,62.882584"
   style="fill:#ffffff;stroke:none;filter:url(#filter4585)"
   transform="matrix(5.1023878,0,0,5.1023878,-73.735495,-11.857596)" /><path
   sodipodi:type="inkscape:offset"
   inkscape:radius="-2.3190637"
   inkscape:original="M 50.125 -6.625 C 46.591586 -6.3696944 44.3125 -4.34375 44.3125 -4.34375 C 23.933379 15.656066 5.5625 34.25 5.5625 34.25 C 2.7344739 37.321073 3.0625 41.21875 3.0625 41.21875 C 4.1444687 43.542304 18.433212 46.858044 21.34375 47.9375 C 24.254298 49.016957 28.005437 50.202171 19.4375 53.6875 C 10.869564 57.17283 17.6875 59.15625 17.6875 59.15625 L 35.75 65.875 C 40.325421 67.784297 36.15625 71.03125 36.15625 71.03125 C 28.503936 77.835942 39.65625 77.90625 39.65625 77.90625 C 47.725122 77.8226 45.65625 83.625 45.65625 83.625 C 49.1497 87.193978 55.37706 86.278387 62.03125 83.125 C 68.685439 79.971603 62.375 78.40625 62.375 78.40625 C 56.718938 76.165017 69.59375 71.78125 69.59375 71.78125 C 75.249812 69.789633 79 65.03125 79 65.03125 C 78.334581 64.035442 75.005426 61.565931 72.34375 59.90625 C 69.682075 58.246569 69.690506 57.81593 70.9375 56.15625 C 72.184495 54.496569 78.25 53.5 78.25 53.5 C 83.739707 52.670159 92.71875 48.78125 92.71875 48.78125 C 103.61299 44.962656 96.5625 34.75 96.5625 34.75 L 57.625 -4.34375 C 54.817763 -6.3044969 52.245048 -6.7781833 50.125 -6.625 z M 49.625 -1.75 C 49.625 -1.75 50.646883 -1.9256856 51.5625 -1.59375 C 52.478117 -1.2618137 73.34375 14.1875 73.34375 14.1875 C 73.34375 14.1875 74.676261 15.755902 74.59375 17 L 64.28125 12.09375 L 63.28125 19.65625 L 57.375 17.25 L 48.875 23.0625 L 45.3125 11.53125 L 40.75 21.5625 L 28.6875 22.625 L 28.75 17.25 C 28.75 17.25 32.17029 10.342229 39.65625 5.03125 L 49.625 -1.75 z M 34.40625 51.09375 C 34.40625 51.09375 44.230717 54.427782 50.96875 54.59375 L 51.3125 56.90625 C 51.3125 56.90625 39.575965 54.9295 36 53.1875 C 36 53.1875 34.905314 52.089557 34.40625 51.09375 z "
   style="fill:url(#linearGradient4316);fill-opacity:1"
   id="path4308"
   d="m 50.28125,-4.3125 c -0.385632,0.027864 -0.563123,0.2089913 -0.90625,0.28125 0.210388,-0.044555 1.425641,-0.3094184 2.96875,0.25 0.748654,0.2714078 0.637515,0.3151337 0.875,0.46875 0.237485,0.1536163 0.535173,0.359233 0.875,0.59375 0.679653,0.469034 1.576488,1.0918814 2.625,1.84375 1.125377,0.80698715 2.626029,1.906574 4,2.90625 L 56.1875,-2.5 C 53.844025,-4.0977877 51.892933,-4.4289516 50.28125,-4.3125 z M 48.625,-3.84375 c -1.520254,0.4807696 -2.593353,1.0759781 -2.6875,1.15625 -0.0053,0.00449 -0.09375,0.0625 -0.09375,0.0625 -1.037107,1.0179203 -0.944374,0.9605543 -1.96875,1.96875 l 4.4375,-3 a 2.3192956,2.3192956 0 0 1 0.3125,-0.1875 z m 17.5625,19.40625 -0.59375,4.40625 a 2.3192956,2.3192956 0 0 1 -3.1875,1.84375 l -4.75,-1.9375 -7.46875,5.09375 A 2.3192956,2.3192956 0 0 1 46.65625,23.75 l -1.75,-5.6875 -2.03125,4.46875 A 2.3192956,2.3192956 0 0 1 40.96875,23.875 l -12.0625,1.0625 A 2.3192956,2.3192956 0 0 1 26.375,22.59375 l 0.0625,-5.375 A 2.3192956,2.3192956 0 0 1 26.5,16.6875 c -7.058399,7.067086 -19.189301,19.095194 -19.21875,19.125 -9.6e-5,9.7e-5 -0.0625,0.0625 -0.0625,0.0625 -1.5785951,1.762596 -1.7567907,3.512476 -1.78125,4.375 0.3392741,0.201096 0.8090449,0.451183 1.4375,0.71875 1.3990811,0.595663 3.314318,1.25938 5.3125,1.875 3.996363,1.23124 8.079244,2.205473 9.96875,2.90625 0.70509,0.261502 1.540616,0.546469 2.375,0.96875 0.834384,0.422281 1.966643,0.941201 2.40625,2.59375 0.219804,0.826274 0.03207,1.809407 -0.34375,2.46875 -0.375819,0.659343 -0.879114,1.103947 -1.4375,1.53125 -1.116771,0.854606 -2.604563,1.620377 -4.84375,2.53125 -1.295654,0.527056 -1.518206,0.777865 -1.96875,1.09375 A 2.3192956,2.3192956 0 0 1 18.5,56.96875 l 18.0625,6.71875 a 2.3192956,2.3192956 0 0 1 0.09375,0.0625 c 1.474963,0.615493 2.647148,1.515895 3.21875,2.8125 0.571602,1.296605 0.311493,2.657527 -0.09375,3.5625 -0.810486,1.809945 -2.1875,2.75 -2.1875,2.75 -1.22588,1.125601 -1.584251,1.765089 -1.6875,1.96875 0.05633,0.03712 0.02756,0.04756 0.125,0.09375 1.010864,0.479157 3.550642,0.653276 3.59375,0.65625 0.01151,-1.19e-4 0.01976,9.9e-5 0.03125,0 2.277652,-0.0196 4.062881,0.360888 5.46875,1.15625 1.412959,0.799373 2.347153,2.069355 2.75,3.25 0.321397,0.941935 0.263694,1.734876 0.21875,2.46875 1.115028,0.791061 2.454411,1.247244 4.40625,1.125 2.381627,-0.149162 5.378654,-1.068501 8.53125,-2.5625 0.520705,-0.24676 0.365479,-0.211075 0.65625,-0.40625 a 2.3192956,2.3192956 0 0 1 -0.15625,-0.0625 c -0.967423,-0.383344 -1.896846,-0.871905 -2.5,-1.9375 -0.603154,-1.065595 -0.40131,-2.525548 0.0625,-3.34375 0.92762,-1.636404 2.261829,-2.298531 3.65625,-3.0625 2.776779,-1.521329 6.034074,-2.61549 6.0625,-2.625 0.0091,-0.0032 0.02218,0.0032 0.03125,0 3.291468,-1.166699 5.443067,-3.115692 6.8125,-4.5 -0.304649,-0.2693 -0.263545,-0.256342 -0.625,-0.53125 -1.181469,-0.898579 -2.64526,-1.901213 -3.90625,-2.6875 -1.408186,-0.878071 -2.569255,-1.338146 -3.15625,-3.09375 -0.293498,-0.877802 -0.09219,-1.908305 0.1875,-2.53125 0.279694,-0.622945 0.597575,-1.047578 0.9375,-1.5 0.787139,-1.047638 1.683506,-1.443902 2.59375,-1.84375 0.910244,-0.399848 1.845442,-0.690513 2.75,-0.9375 1.809117,-0.493973 3.4375,-0.75 3.4375,-0.75 a 2.3192956,2.3192956 0 0 1 0.03125,0 c 4.800498,-0.725658 13.90625,-4.5625 13.90625,-4.5625 a 2.3192956,2.3192956 0 0 1 0.125,-0.0625 c 2.345352,-0.822081 3.413744,-1.829013 3.96875,-2.78125 0.555006,-0.952237 0.68483,-2.026391 0.53125,-3.1875 -0.29383,-2.221442 -1.601785,-4.254774 -1.71875,-4.4375 L 76.65625,18.03125 a 2.3192956,2.3192956 0 0 1 -3.0625,1.0625 L 66.1875,15.5625 z M 34.09375,48.78125 a 2.3192956,2.3192956 0 0 1 1.0625,0.125 c 0,0 9.845791,3.226491 15.875,3.375 A 2.3192956,2.3192956 0 0 1 53.25,54.25 l 0.34375,2.3125 a 2.3192956,2.3192956 0 0 1 -2.65625,2.625 c 0,0 -2.972152,-0.495659 -6.40625,-1.21875 C 41.097152,57.245659 37.375504,56.438456 35,55.28125 A 2.3192956,2.3192956 0 0 1 34.34375,54.8125 c 0,0 -1.198244,-1.087717 -2,-2.6875 a 2.3192956,2.3192956 0 0 1 1.75,-3.34375 z"
   transform="matrix(5.1023878,0,0,5.1023878,-16.176885,47.291413)" /><path
   sodipodi:nodetypes="ccccccccccccc"
   id="path4421"
   d="M 60.06198,9.5335708 C 53.503961,14.775018 41.945307,27.071179 41.945307,27.071179 l 0.581555,5.804061 10.591832,-1.054391 4.073782,-8.962321 0.875036,16.501821 9.860577,-11.277794 7.560089,6.179498 -1.47338,-10.828402 13.637093,8.473932 c -0.10304,-0.878659 -5.536055,-5.33325 -6.147305,-6.211909 L 64.701089,9.6987472 C 63.865502,8.8211328 60.87607,8.5517664 60.06198,9.5335708 z"
   style="fill:#ffffff;stroke:none;filter:url(#filter4515)"
   transform="matrix(5.1023878,0,0,5.1023878,-73.735495,-11.857596)" /><path
   style="fill:url(#linearGradient4329);fill-opacity:1;stroke:none;filter:url(#filter4335)"
   d="M 56.367766,9.3821588 19.694092,47.134477 c -0.502049,0.924064 -1.443846,2.641016 -0.215728,3.020185 l 27.61312,9.492009 9.276282,-50.2645122"
   id="path4318"
   sodipodi:nodetypes="ccccc"
   transform="matrix(5.1023878,0,0,5.1023878,-73.735495,-11.857596)" /><path
   style="fill:url(#linearGradient4350);fill-opacity:1;stroke:none;filter:url(#filter4356)"
   d="m 94.111229,36.914457 c 17.120411,12.815602 16.273461,20.333134 1.677966,23.79661 l -1.944915,0.419491 0.266949,-24.216101"
   id="path4339"
   sodipodi:nodetypes="cccc"
   transform="matrix(5.1023878,0,0,5.1023878,-73.735495,-11.857596)" /><path
   id="path4373"
   d="m 139.89694,411.60413 c 0,0 1.68257,1.07469 -0.48018,3.00435 -2.16276,1.92964 -10.56408,7.51258 -13.92538,8.80017 0,0 -6.2424,3.00435 -12.00463,-0.2164 -5.76222,-3.22066 -5.76222,-9.01306 7.68296,-16.30934 l 6.48443,-0.2164 c -0.004,0.002 6.96077,2.14939 12.24281,4.93745 z"
   style="fill:url(#linearGradient4381);fill-opacity:1" /><path
   id="path4383"
   d="m 421.85029,387.03472 c 0,0 -2.06291,-7.36453 10.53443,-9.66594 l 10.30726,-2.07312 c 0,0 17.40472,0.4603 15.5726,9.20566 -1.83207,8.74537 -10.07639,7.36453 -13.28253,7.36453 -3.20608,0 -13.97139,-0.68861 -23.13176,-4.83113 z"
   style="fill:url(#linearGradient4391);fill-opacity:1" /><path
   id="path4393"
   d="m 411.49364,407.53946 c 0,0 6.00285,0.73527 8.83888,6.24984 2.83604,5.51457 -5.33588,6.9851 -5.33588,6.9851 0,0 -4.67156,0.36764 -6.83791,-5.51456 0,0 -1.50208,-5.32927 3.33491,-7.72038 z"
   style="fill:url(#linearGradient4401);fill-opacity:1" />



</svg>